<?xml version="1.0" encoding="UTF-8"?>
<svg id="Layer_2" data-name="Layer 2" xmlns="http://www.w3.org/2000/svg" viewBox="0 0 1716.62 1563">
  <defs>
    <style>
      .cls-1 {
        fill: #000;
      }

      .cls-1, .cls-2 {
        stroke-width: 0px;
      }

      .cls-2 {
        fill: #fff;
      }
    </style>
  </defs>
  <g id="Layer_1-2" data-name="Layer 1">
    <g>
      <path class="cls-2" d="M0,0c572.2,0,1144.41,0,1716.62,0,0,521,0,1042,0,1563-572.2,0-1144.41,0-1716.61,0C0,1042,0,521,0,0ZM1232.96,756.62v-249.06h-98.79v249.06h98.79ZM1341.29,756.53v-249.32c-2.14,0-3.95,0-5.76,0-28.55,0-57.1.02-85.65.02-7.33,0-7.37-.01-7.37,6.75-.01,78.98,0,157.96,0,236.94,0,1.77,0,3.54,0,5.6h98.78ZM1101.92,643.36c.15-1.04.37-1.83.37-2.62,0-14.49.06-28.99-.07-43.48-.07-7.59-3.08-9.8-11.61-9.77-43.18.16-86.35.21-129.53.3-2.19,0-4.41-.31-6.56-.08-4.85.54-7.9,2.22-7.68,7.67.45,11.31.14,22.65.14,33.98,0,4.61,0,9.22,0,14h154.94ZM1101.98,719.55h-154.54v61.34h12.9c.19-1.71.37-2.68.4-3.66q.29-7.43,8.42-7.44c35.48,0,70.95.02,106.43.02q11.46,0,12.29,10.02c.01.13.21.26.52.62h13.57v-60.9ZM1102.27,703.56c0-13.58-.23-26.7.13-39.8.12-4.5-1.35-5.57-6.13-5.55-47.72.16-95.44.1-143.16.13-1.94,0-3.88.18-5.67.28v44.95h154.83ZM1321.47,965.96l-1.52.25c-1.39-2.13-2.79-4.25-4.16-6.39-24.28-37.93-48.56-75.86-72.82-113.8-2.65-4.15-6.15-7.53-11.77-6.44-6.13,1.2-6.38,5.96-6.37,10.71.06,40.49.03,80.99.04,121.48,0,1.5-.55,3.31.17,4.43,1.15,1.77,3.36,4.43,4.76,4.26,2-.24,3.9-2.54,5.4-4.28.62-.72.11-2.26.11-3.43-.02-37-.04-73.99-.06-110.99,0-2.34,0-4.68,0-7.02,1.88.63,2.44,1.26,2.88,1.95,10.6,16.52,21.2,33.05,31.78,49.58,14.45,22.57,28.85,45.16,43.35,67.7,4.1,6.38,7.41,8.04,12.56,6.55,6.07-1.75,6.02-6.35,6.02-11.01-.04-40.99-.04-81.99,0-122.98,0-3.55-.56-6.39-5.42-6.41-5.18-.01-5.01,3.23-5.01,6.57.04,38.16.03,76.32.04,114.49,0,1.59,0,3.17,0,4.76ZM1164.12,916.13c2.27-.22,3.51-.23,4.69-.48,7.03-1.49,14.69-1.89,20.95-4.79,15.89-7.37,22.97-24.68,18.99-43.14-3.11-14.39-16.96-25.21-34.44-26.36-15.65-1.03-31.39-.95-47.1-1.17-8.17-.12-9.97,1.67-9.98,9.11-.02,41.47,0,82.95-.03,124.42,0,3.6.24,7.1,5.44,6.92,4.69-.16,5.04-3.44,5.03-6.85-.05-21.49-.03-42.97-.02-64.46,0-18.65.12-37.31-.03-55.96-.03-3.51,1.17-4.67,5-4.55,7.13.22,14.32-.46,21.39.16,9.36.83,18.92,1.66,27.87,4.1,12.62,3.46,19.42,14.32,17.67,27.8-1.73,13.36-8.06,21.75-21.15,24.28-7.06,1.36-14.48,1.13-21.72,1.8-6.1.56-8.08,4.19-5.08,9.06.89,1.44,2.01,2.78,3.11,4.11,9.91,11.94,19.82,23.87,29.75,35.79,6.19,7.42,12.38,14.84,18.64,22.21,2.61,3.07,6.65,3.89,9.78,1.97,3.96-2.42-.29-4.82-1.47-7.11-.38-.74-1.04-1.37-1.59-2.03-13.85-16.53-27.71-33.06-41.55-49.6-1.26-1.51-2.44-3.08-4.12-5.22ZM668.24,916.83c8.15-1.65,15.84-2.17,22.56-4.77,14.3-5.54,20.83-16.64,22.24-30.29,1.84-17.81-6.09-33.21-27.06-38.69-19.55-5.11-39.58-2.49-59.42-2.55-1.86,0-4.11,3.12-5.47,5.18-.82,1.25-.32,3.25-.32,4.92,0,40.98,0,81.96,0,122.94,0,1-.42,2.29.11,2.94,1.28,1.57,3.08,4,4.54,3.93,1.95-.09,4.17-1.96,5.54-3.57.81-.95.25-2.9.25-4.39,0-37.65,0-75.3,0-112.94,0-2.5-.3-5.05.17-7.47.23-1.17,1.97-3.04,2.97-3.01,15.12.49,30.37.31,45.29,2.22,13.98,1.79,22.4,11.31,23.55,22.99,1.14,11.65-4.33,26.29-17.48,29.8-7.56,2.02-15.83,1.78-23.72,2.93-2.63.38-6.24,1.32-7.25,3.05-1.01,1.72.53,4.79,1.27,7.19.32,1.05,1.41,1.92,2.18,2.85,10.03,12.07,20.04,24.14,30.11,36.19,6.08,7.28,12.19,14.54,18.38,21.74,2.46,2.87,8.78,4.18,9.9,1.89.85-1.74-.85-4.54-1.5-6.85-.12-.44-.64-.8-.97-1.19-13.19-15.73-26.4-31.46-39.57-47.2-2.17-2.59-4.23-5.26-6.28-7.82ZM1082.09,891.37h-.03c0,14.16.08,28.32-.02,42.49-.16,21.83-15.77,36.67-39.79,37.68-16.44.69-35.84-7.3-40.94-25.45-1.3-4.62-2.14-9.48-2.18-14.24-.2-28.32-.11-56.65-.08-84.97,0-3.34.03-6.58-4.99-6.76-5.11-.18-5.26,2.95-5.23,6.39.06,10.16-.09,20.33.01,30.49.22,20.98-.44,42.01,1.07,62.91,1.87,25.82,21.72,38.65,46.37,40.62,31.59,2.52,55.17-16.83,56.01-45.71.87-29.97.21-59.97.27-89.96,0-3.45-1.89-4.83-5.43-4.71-4.51.15-5.09,2.92-5.08,6.24.05,14.99.02,29.99.02,44.98ZM433.29,852.39c1.07,1.61,1.64,2.21,1.91,2.91,8.36,21.6,16.68,43.21,25.02,64.82,7.31,18.95,14.65,37.89,21.96,56.85,1.37,3.55,4.2,4.61,7.78,3.37,3.62-1.25,3.22-3.76,1.97-6.62-2.09-4.78-3.79-9.7-5.68-14.55-14.65-37.54-29.31-75.08-43.94-112.63-1.54-3.96-4.08-6.63-9.09-6.63-4.77,0-7.11,2.46-8.6,6.33-12.75,33.05-25.59,66.06-38.41,99.08-3.71,9.55-7.57,19.05-11.06,28.66-.59,1.64-.41,4.39.73,5.42,1.18,1.07,4.23,1.33,5.96.74,1.5-.51,2.75-2.57,3.37-4.18,13.42-34.39,26.73-68.82,40.07-103.23,2.51-6.48,5.09-12.94,8.02-20.36ZM896.8,848.79c2.83,0,5.18,0,7.52,0,20.68,0,41.35-.04,62.03.04,3.5.01,5.57-.7,5.58-4.37.01-3.73-2.24-4.38-5.64-4.37-23.97.05-47.94,0-71.91.06-6.09.01-7.84,1.62-7.84,7.12-.04,42.65,0,85.3-.08,127.95,0,3.2,1.16,5.27,4.75,5.47,3.81.21,5.04-2.05,5.05-5.14,0-1.33,0-2.67,0-4,.01-38.31.01-76.63.05-114.94,0-2.45.29-4.89.48-7.83ZM515.19,910.71h.02c0,8.67,0,17.33,0,26,0,13-.12,26,.1,39,.03,1.61,1.45,3.72,2.93,4.61,1.03.62,4.03.09,4.82-.85,1.17-1.39,1.59-3.6,1.59-5.46.08-39.16.06-78.33.06-117.49q0-7.7,8.15-7.71c20.68,0,41.37-.03,62.05.02,3.33,0,5.7-.41,5.71-4.23.01-4.12-2.71-4.47-6.15-4.47-23.61.02-47.22-.02-70.84.02-7.25.01-8.43,1.22-8.43,8.07-.01,20.83,0,41.66,0,62.5ZM743.47,911.03c0-21.82-.03-43.64.03-65.46,0-3.32-.95-5.55-5.18-5.46-4.19.09-4.37,2.56-4.36,5.49.06,18.32.02,36.64.02,54.96,0,24.48.02,48.97-.02,73.45,0,3.17.08,6.42,4.55,6.65,4.62.24,4.98-2.92,4.98-6.18-.03-21.15-.02-42.31-.01-63.46ZM559.57,911.73v.02c7.68,0,15.37-.05,23.05.02,3.12.03,5.59-.67,5.65-3.95.06-3.2-1.74-4.73-5.47-4.7-15.55.11-31.1.1-46.66.03-3.57-.02-5.48,1.06-5.52,4.56-.04,3.53,2.2,4.07,5.34,4.04,7.87-.07,15.73-.02,23.6-.02ZM930.74,911.75c7.66,0,15.32-.03,22.97.02,3.28.02,5.87-.58,5.9-4.23.02-3.57-2.36-4.4-5.74-4.39-15.32.05-30.63.06-45.95,0-3.36-.01-5.81.89-5.92,4.28-.11,3.52,2.34,4.38,5.76,4.34,7.66-.09,15.31-.03,22.97-.02ZM433.87,919.23v-.02c-6.01,0-12.03.1-18.04-.04-3.54-.08-4.94,1.35-4.96,4.43-.02,2.87,1.27,4.29,4.53,4.28,12.03-.02,24.05.05,36.08.07,3.21,0,5.22-1.08,5.06-4.4-.14-3.12-1.8-4.4-5.18-4.34-5.83.1-11.66.03-17.49.03ZM796.29,999.25c-.4.83-.79,1.28-.8,1.73-.12,7.15-.22,14.3-.26,21.46-.06,12.22.6,12.73,14.1,11.21,6.42-.73,10.07-5.53,7.98-11.11-.88-2.35-2.84-4.36-4.53-6.87.05-.06.44-.61.93-1.08,3.47-3.29,4.26-7.52,1.69-10.92-1.71-2.27-5.71-3.56-8.96-4.27-3.25-.71-6.83-.16-10.15-.16ZM936.53,1033.41l1.82.17c.26-4.43.53-8.85.86-14.54,5.26,1.06,10.89.77,13.81,3.2,2.76,2.29,2.66,7.43,3.82,11.31.46-5.35,2.39-11.03-4.24-14.4,4.96-5.08,6.29-10.91,3.69-15.17-2.69-4.4-10.49-5.98-19.77-4.02v33.46ZM846.72,1006.38c.49-.07.98-.13,1.47-.2,5.5,9.14,11,18.28,16.51,27.41.36-.18.71-.36,1.07-.54v-33.3c-.51,0-1.01,0-1.52,0v26.49c-.46.09-.92.18-1.38.27-5.48-9.12-10.96-18.25-16.44-27.37-.35.16-.7.32-1.04.48v33.39c.45,0,.9,0,1.34,0v-26.63ZM761.29,1033.24c.58.2,1.17.39,1.75.59.78-2.13,1.82-4.22,2.27-6.41.67-3.23,2.42-4.58,6.04-4.03,1.41.21,2.92.13,4.36-.04,3.14-.38,4.67.89,5.34,3.61.57,2.27,1.55,4.46,2.34,6.68.61-.19,1.22-.38,1.83-.57-1.45-4.72-2.92-9.43-4.35-14.16-1.74-5.74-3.38-11.5-5.24-17.2-.3-.93-1.4-1.78-2.37-2.32-.25-.14-1.83.91-2.05,1.61-3.39,10.72-6.65,21.48-9.94,32.23ZM879.79,999.5v33.66h17.88c0-.44,0-.88.01-1.32h-15.61v-14.72h12.84c.01-.5.03-1,.04-1.5-4.2-.18-8.4-.35-13.23-.55,0-3.22.26-6.19-.07-9.11-.42-3.74,1.12-5.18,5.2-4.95,3.55.2,7.12.04,10.68.04-.02-.51-.04-1.03-.06-1.54h-17.67ZM1332.77,765.22c-2.86,0-5.28-.35-7.5.13-1.34.29-3.23,1.79-3.33,2.86-.39,4.08-.16,8.21-.16,12.26h10.99v-15.26ZM751.59,1024.95c-.76,1.14-1.24,2.7-2.35,3.34-2.73,1.58-5.75,3.75-8.66,3.75-2.39,0-5.91-2.27-6.99-4.37-3.71-7.22-3.54-14.91-.19-22.24,2.8-6.14,11.23-6.7,15.51-1.32.97,1.21,1.81,2.51,3.29,4.57-.29-5.57-3.26-8.83-7.75-9.56-6.59-1.08-11.59,1.24-13.65,6.51-2.51,6.44-2.59,13.01-.82,19.61,1.49,5.55,5.78,8.96,11.42,9.21,5.12.23,9.24-2.98,10.18-9.51ZM1153.74,780.64v-14.94h-9.87v14.94h9.87ZM969.26,998.98c-.57.19-1.15.38-1.72.57,2.9,11.53,11.88,21.46,10.24,34.75,4.19-12.29,8.03-23.59,11.88-34.88-.45-.17-.9-.34-1.35-.52-2.99,6.91-5.98,13.82-8.96,20.74-.43-.09-.87-.18-1.3-.28-2.93-6.79-5.86-13.59-8.79-20.38ZM925.92,999.61h-19.94c.62.97,1.41,1.41,2.13,1.32,5.84-.7,7.13,2.01,6.87,6.73-.34,6.31-.09,12.64-.1,18.96,0,2.13,0,4.26,0,6.4l1.96-.07c0-7.38-.01-14.76,0-22.14q.02-8.83,9.07-11.2ZM830.03,999.17v35.03c2.92-4.19,2.68-32.27,0-35.03Z"/>
      <path class="cls-1" d="M1232.96,756.62h-98.79v-249.06h98.79v249.06ZM1229.13,632.11h-.05c0-3.16.52-6.42-.22-9.43-.37-1.5-2.92-3.3-4.69-3.51-1.22-.14-3.91,2.16-4,3.49-.44,6.12-.47,12.31.01,18.42.12,1.44,2.86,3.78,4.34,3.75,1.57-.03,4-2.21,4.41-3.8.72-2.84.2-5.94.2-8.93Z"/>
      <path class="cls-1" d="M1341.29,756.53h-98.78c0-2.06,0-3.83,0-5.6,0-78.98,0-157.96,0-236.94,0-6.76.04-6.75,7.37-6.75,28.55,0,57.1-.01,85.65-.02,1.81,0,3.62,0,5.76,0v249.32ZM1255.63,631.95c0-2.99.41-6.05-.17-8.95-.3-1.52-2.21-3.74-3.58-3.86-1.56-.14-4.72,1.65-4.78,2.71-.41,6.76-.38,13.56.09,20.31.08,1.07,3.25,2.87,4.75,2.69,1.4-.17,3.23-2.41,3.53-3.96.56-2.9.16-5.96.16-8.95Z"/>
      <path class="cls-1" d="M1101.92,643.36h-154.94c0-4.78,0-9.39,0-14,0-11.33.31-22.67-.14-33.98-.22-5.45,2.83-7.13,7.68-7.67,2.15-.24,4.37.08,6.56.08,43.18-.08,86.35-.14,129.53-.3,8.53-.03,11.54,2.17,11.61,9.77.13,14.49.07,28.99.07,43.48,0,.79-.22,1.58-.37,2.62ZM1032.56,614.75c-4.91,0-9.29-.17-13.63.12-1.11.07-2.93,1.5-3.02,2.42-.34,3.75-.14,7.55-.14,11.53h16.79v-14.06Z"/>
      <path class="cls-1" d="M1101.98,719.55v60.9h-13.57c-.31-.36-.51-.48-.52-.62q-.83-10.04-12.29-10.02c-35.48,0-70.95-.02-106.43-.02q-8.13,0-8.42,7.44c-.04.98-.21,1.95-.4,3.66h-12.9v-61.34h154.54ZM1016.23,731.06v13.84h16.14v-13.84h-16.14Z"/>
      <path class="cls-1" d="M1102.27,703.56h-154.83v-44.95c1.79-.09,3.73-.27,5.67-.28,47.72-.02,95.44.03,143.16-.13,4.78-.02,6.25,1.05,6.13,5.55-.36,13.1-.13,26.22-.13,39.8ZM1032.74,686.11c0-4.06.3-7.55-.16-10.96-.17-1.25-2.3-3.39-3.21-3.25-4.51.65-9.76-2.59-13.54,1.92-.09.11-.06.32-.06.49,0,3.9,0,7.79,0,11.81h16.96Z"/>
      <path class="cls-1" d="M1321.47,965.96c0-1.59,0-3.17,0-4.76,0-38.16,0-76.32-.04-114.49,0-3.34-.18-6.59,5.01-6.57,4.86.01,5.42,2.85,5.42,6.41-.05,40.99-.05,81.99,0,122.98,0,4.66.05,9.26-6.02,11.01-5.16,1.49-8.46-.18-12.56-6.55-14.5-22.54-28.9-45.14-43.35-67.7-10.58-16.53-21.18-33.06-31.78-49.58-.44-.69-1.01-1.32-2.88-1.95,0,2.34,0,4.68,0,7.02.02,37,.04,73.99.06,110.99,0,1.17.51,2.7-.11,3.43-1.5,1.74-3.39,4.04-5.4,4.28-1.4.17-3.61-2.49-4.76-4.26-.72-1.12-.17-2.93-.17-4.43,0-40.49.02-80.99-.04-121.48,0-4.75.24-9.52,6.37-10.71,5.62-1.1,9.11,2.29,11.77,6.44,24.26,37.94,48.54,75.87,72.82,113.8,1.37,2.14,2.77,4.26,4.16,6.39l1.52-.25Z"/>
      <path class="cls-1" d="M1164.12,916.13c1.68,2.13,2.86,3.71,4.12,5.22,13.84,16.54,27.7,33.07,41.55,49.6.55.66,1.21,1.29,1.59,2.03,1.19,2.3,5.43,4.69,1.47,7.11-3.13,1.92-7.17,1.1-9.78-1.97-6.26-7.37-12.45-14.79-18.64-22.21-9.93-11.92-19.85-23.85-29.75-35.79-1.1-1.33-2.22-2.66-3.11-4.11-3.01-4.87-1.02-8.5,5.08-9.06,7.24-.66,14.66-.43,21.72-1.8,13.09-2.53,19.42-10.92,21.15-24.28,1.75-13.48-5.05-24.35-17.67-27.8-8.94-2.45-18.5-3.28-27.87-4.1-7.07-.63-14.26.06-21.39-.16-3.83-.12-5.03,1.04-5,4.55.15,18.65.04,37.31.03,55.96,0,21.49-.02,42.97.02,64.46,0,3.41-.34,6.69-5.03,6.85-5.19.18-5.44-3.32-5.44-6.92.03-41.47.01-82.95.03-124.42,0-7.44,1.81-9.23,9.98-9.11,15.71.22,31.45.14,47.1,1.17,17.48,1.15,31.33,11.97,34.44,26.36,3.99,18.47-3.09,35.77-18.99,43.14-6.25,2.9-13.91,3.3-20.95,4.79-1.18.25-2.43.26-4.69.48Z"/>
      <path class="cls-1" d="M668.24,916.83c2.06,2.56,4.11,5.23,6.28,7.82,13.18,15.74,26.38,31.47,39.57,47.2.33.4.85.75.97,1.19.65,2.31,2.35,5.11,1.5,6.85-1.12,2.29-7.43.97-9.9-1.89-6.19-7.2-12.3-14.46-18.38-21.74-10.06-12.05-20.08-24.12-30.11-36.19-.77-.93-1.86-1.79-2.18-2.85-.74-2.4-2.28-5.47-1.27-7.19,1.01-1.73,4.62-2.67,7.25-3.05,7.89-1.14,16.15-.91,23.72-2.93,13.16-3.51,18.62-18.15,17.48-29.8-1.14-11.67-9.57-21.2-23.55-22.99-14.92-1.91-30.17-1.73-45.29-2.22-1-.03-2.74,1.83-2.97,3.01-.47,2.42-.17,4.97-.17,7.47,0,37.65,0,75.3,0,112.94,0,1.5.56,3.44-.25,4.39-1.38,1.62-3.59,3.48-5.54,3.57-1.47.07-3.26-2.37-4.54-3.93-.53-.65-.11-1.94-.11-2.94,0-40.98,0-81.96,0-122.94,0-1.66-.5-3.67.32-4.92,1.35-2.06,3.61-5.19,5.47-5.18,19.84.06,39.87-2.57,59.42,2.55,20.97,5.48,28.91,20.88,27.06,38.69-1.41,13.64-7.95,24.75-22.24,30.29-6.72,2.6-14.41,3.13-22.56,4.77Z"/>
      <path class="cls-1" d="M1082.09,891.37c0-14.99.03-29.99-.02-44.98-.01-3.31.57-6.09,5.08-6.24,3.54-.12,5.44,1.26,5.43,4.71-.06,29.99.6,59.99-.27,89.96-.84,28.87-24.42,48.22-56.01,45.71-24.65-1.97-44.5-14.8-46.37-40.62-1.51-20.9-.86-41.93-1.07-62.91-.1-10.16.05-20.33-.01-30.49-.02-3.43.13-6.57,5.23-6.39,5.02.18,4.99,3.42,4.99,6.76-.03,28.32-.12,56.65.08,84.97.03,4.76.88,9.62,2.18,14.24,5.1,18.15,24.5,26.14,40.94,25.45,24.02-1.01,39.63-15.86,39.79-37.68.1-14.16.02-28.32.02-42.49h.03Z"/>
      <path class="cls-1" d="M433.29,852.39c-2.92,7.42-5.5,13.88-8.02,20.36-13.35,34.41-26.66,68.84-40.07,103.23-.63,1.61-1.87,3.67-3.37,4.18-1.74.59-4.78.33-5.96-.74-1.14-1.04-1.33-3.79-.73-5.42,3.49-9.61,7.36-19.11,11.06-28.66,12.82-33.02,25.67-66.04,38.41-99.08,1.49-3.87,3.84-6.32,8.6-6.33,5.01,0,7.54,2.66,9.09,6.63,14.63,37.55,29.3,75.08,43.94,112.63,1.89,4.85,3.59,9.77,5.68,14.55,1.25,2.85,1.65,5.37-1.97,6.62-3.58,1.24-6.41.18-7.78-3.37-7.31-18.95-14.64-37.9-21.96-56.85-8.34-21.61-16.66-43.22-25.02-64.82-.27-.69-.84-1.29-1.91-2.91Z"/>
      <path class="cls-1" d="M896.8,848.79c-.19,2.94-.48,5.39-.48,7.83-.04,38.31-.04,76.63-.05,114.94,0,1.33,0,2.67,0,4,0,3.08-1.24,5.35-5.05,5.14-3.58-.2-4.75-2.27-4.75-5.47.08-42.65.05-85.3.08-127.95,0-5.5,1.75-7.11,7.84-7.12,23.97-.06,47.94,0,71.91-.06,3.4,0,5.65.64,5.64,4.37-.01,3.67-2.08,4.38-5.58,4.37-20.68-.08-41.35-.04-62.03-.04-2.35,0-4.69,0-7.52,0Z"/>
      <path class="cls-1" d="M515.19,910.71c0-20.83,0-41.66,0-62.5,0-6.85,1.18-8.06,8.43-8.07,23.61-.04,47.22,0,70.84-.02,3.44,0,6.16.34,6.15,4.47-.01,3.82-2.38,4.24-5.71,4.23-20.68-.05-41.37-.03-62.05-.02q-8.14,0-8.15,7.71c0,39.16.02,78.33-.06,117.49,0,1.86-.42,4.07-1.59,5.46-.79.94-3.79,1.48-4.82.85-1.49-.9-2.9-3-2.93-4.61-.22-13-.1-26-.1-39,0-8.67,0-17.33,0-26h-.02Z"/>
      <path class="cls-1" d="M743.47,911.03c0,21.15-.02,42.31.01,63.46,0,3.26-.36,6.42-4.98,6.18-4.48-.23-4.56-3.47-4.55-6.65.04-24.48.02-48.97.02-73.45,0-18.32.04-36.64-.02-54.96,0-2.93.17-5.4,4.36-5.49,4.23-.09,5.19,2.14,5.18,5.46-.05,21.82-.03,43.64-.03,65.46Z"/>
      <path class="cls-1" d="M559.57,911.73c-7.87,0-15.74-.04-23.6.02-3.14.03-5.38-.51-5.34-4.04.04-3.5,1.95-4.57,5.52-4.56,15.55.07,31.1.07,46.66-.03,3.73-.03,5.52,1.5,5.47,4.7-.06,3.28-2.52,3.98-5.65,3.95-7.68-.07-15.37-.02-23.05-.02v-.02Z"/>
      <path class="cls-1" d="M930.74,911.74c-7.66,0-15.32-.07-22.97.03-3.42.04-5.87-.83-5.76-4.34.11-3.4,2.56-4.29,5.92-4.28,15.32.05,30.63.04,45.95,0,3.38-.01,5.76.83,5.74,4.39-.02,3.66-2.62,4.25-5.9,4.23-7.66-.05-15.32-.02-22.97-.02Z"/>
      <path class="cls-1" d="M433.87,919.23c5.83,0,11.66.07,17.49-.03,3.38-.06,5.04,1.23,5.18,4.34.15,3.32-1.85,4.41-5.06,4.4-12.03-.02-24.05-.08-36.08-.07-3.27,0-4.56-1.41-4.53-4.28.02-3.09,1.42-4.52,4.96-4.43,6.01.14,12.03.04,18.04.04v.02Z"/>
      <path class="cls-1" d="M796.29,999.25c3.31,0,6.9-.55,10.15.16,3.25.71,7.25,2,8.96,4.27,2.58,3.4,1.78,7.63-1.69,10.92-.49.46-.87,1.01-.93,1.08,1.7,2.51,3.66,4.52,4.53,6.87,2.08,5.58-1.57,10.38-7.98,11.11-13.49,1.52-14.16,1.01-14.1-11.21.03-7.15.14-14.3.26-21.46,0-.45.4-.9.8-1.73ZM804.28,1017.02c-2.3.6-6.43.94-6.58,1.84-.64,3.85-.74,8.02.39,11.71.31,1.02,5.58,1.15,8.55,1.04,6.83-.24,9.94-3.86,8.35-9.28-1.52-5.2-6.07-4.95-10.71-5.31ZM796.43,1014.27c.57.44,1.14.87,1.71,1.31,4.91-1.41,11.32,2.46,14.68-3.22,1.36-2.31.83-7.97-.88-8.85-3.58-1.86-10.85-3.38-12.37-1.76-2.71,2.89-2.27,8.22-3.15,12.53Z"/>
      <path class="cls-1" d="M936.53,1033.41v-33.46c9.28-1.96,17.08-.38,19.77,4.02,2.6,4.25,1.27,10.09-3.69,15.17,6.63,3.37,4.7,9.06,4.24,14.4-1.16-3.88-1.07-9.02-3.82-11.31-2.92-2.42-8.55-2.14-13.81-3.2-.34,5.69-.6,10.11-.86,14.54l-1.82-.17ZM938.77,1018.26c3.17,0,5.51.13,7.83-.03,4.71-.31,8.39-2.43,8.44-6.85.03-2.81-1.11-6.88-3.29-8.15-3.02-1.75-7.53-1.74-11.37-1.61-.63.02-1.32,4.5-1.55,6.96-.27,2.94-.06,5.91-.06,9.68Z"/>
      <path class="cls-1" d="M846.72,1006.38v26.63c-.45,0-.9,0-1.34,0v-33.39c.35-.16.7-.32,1.04-.48,5.48,9.12,10.96,18.25,16.44,27.37.46-.09.92-.18,1.38-.27v-26.49c.51,0,1.01,0,1.52,0v33.3c-.36.18-.71.36-1.07.54-5.5-9.14-11-18.28-16.51-27.41-.49.07-.98.13-1.47.2Z"/>
      <path class="cls-1" d="M761.29,1033.24c3.29-10.75,6.55-21.51,9.94-32.23.22-.7,1.8-1.75,2.05-1.61.97.54,2.06,1.39,2.37,2.32,1.86,5.7,3.5,11.46,5.24,17.2,1.43,4.72,2.9,9.44,4.35,14.16-.61.19-1.22.38-1.83.57-.8-2.22-1.78-4.41-2.34-6.68-.68-2.73-2.21-3.99-5.34-3.61-1.43.17-2.94.25-4.36.04-3.63-.55-5.38.8-6.04,4.03-.45,2.19-1.49,4.28-2.27,6.41-.58-.2-1.17-.39-1.75-.59ZM779.2,1021.09c-1.8-5.99-3.5-11.66-5.2-17.32-.47.02-.95.04-1.42.07-1.67,5.59-3.34,11.19-5.15,17.26h11.77Z"/>
      <path class="cls-1" d="M879.79,999.5h17.67c.02.51.04,1.03.06,1.54-3.56,0-7.13.16-10.68-.04-4.08-.23-5.62,1.21-5.2,4.95.33,2.92.07,5.89.07,9.11,4.83.2,9.03.38,13.23.55-.01.5-.03,1-.04,1.5h-12.84v14.72h15.61c0,.44,0,.88-.01,1.32h-17.88v-33.66Z"/>
      <path class="cls-1" d="M1332.77,765.22v15.26h-10.99c0-4.06-.24-8.19.16-12.26.1-1.08,2-2.58,3.33-2.86,2.21-.48,4.64-.13,7.5-.13Z"/>
      <path class="cls-1" d="M751.59,1024.95c-.94,6.53-5.07,9.74-10.18,9.51-5.63-.26-9.93-3.67-11.42-9.21-1.77-6.6-1.7-13.17.82-19.61,2.06-5.27,7.06-7.59,13.65-6.51,4.48.73,7.46,3.99,7.75,9.56-1.48-2.07-2.33-3.36-3.29-4.57-4.29-5.38-12.72-4.82-15.51,1.32-3.34,7.33-3.52,15.02.19,22.24,1.08,2.09,4.6,4.37,6.99,4.37,2.91,0,5.93-2.17,8.66-3.75,1.11-.64,1.59-2.2,2.35-3.34Z"/>
      <path class="cls-1" d="M1153.74,780.64h-9.87v-14.94h9.87v14.94Z"/>
      <path class="cls-1" d="M969.26,998.98c2.93,6.79,5.86,13.59,8.79,20.38.43.09.87.18,1.3.28,2.99-6.91,5.98-13.82,8.96-20.74.45.17.9.34,1.35.52-3.85,11.3-7.69,22.59-11.88,34.88,1.64-13.29-7.34-23.22-10.24-34.75.57-.19,1.15-.38,1.72-.57Z"/>
      <path class="cls-1" d="M925.92,999.61q-9.04,2.37-9.07,11.2c-.01,7.38,0,14.76,0,22.14l-1.96.07c0-2.13,0-4.26,0-6.4,0-6.32-.25-12.65.1-18.96.26-4.72-1.03-7.43-6.87-6.73-.72.09-1.51-.36-2.13-1.32h19.94Z"/>
      <path class="cls-1" d="M830.03,999.17c2.68,2.76,2.92,30.85,0,35.03v-35.03Z"/>
      <path class="cls-2" d="M1229.13,632.11c0,2.99.52,6.09-.2,8.93-.4,1.59-2.84,3.77-4.41,3.8-1.49.03-4.23-2.32-4.34-3.75-.49-6.12-.45-12.3-.01-18.42.09-1.33,2.79-3.63,4-3.49,1.77.2,4.32,2.01,4.69,3.51.74,3.01.22,6.27.22,9.43h.05Z"/>
      <path class="cls-2" d="M1255.63,631.95c0,2.99.4,6.05-.16,8.95-.3,1.55-2.13,3.79-3.53,3.96-1.5.18-4.67-1.62-4.75-2.69-.47-6.75-.51-13.55-.09-20.31.07-1.07,3.23-2.85,4.78-2.71,1.38.12,3.28,2.34,3.58,3.86.57,2.9.17,5.96.16,8.95Z"/>
      <path class="cls-2" d="M1032.56,614.75v14.06h-16.79c0-3.98-.2-7.77.14-11.53.08-.91,1.91-2.34,3.02-2.42,4.34-.28,8.72-.12,13.63-.12Z"/>
      <path class="cls-2" d="M1016.23,731.06h16.14v13.84h-16.14v-13.84Z"/>
      <path class="cls-2" d="M1032.74,686.11h-16.96c0-4.02,0-7.91,0-11.81,0-.17-.04-.38.06-.49,3.78-4.51,9.03-1.27,13.54-1.92.91-.13,3.04,2.01,3.21,3.25.45,3.41.16,6.9.16,10.96Z"/>
      <path class="cls-2" d="M804.28,1017.02c4.64.35,9.19.11,10.71,5.31,1.59,5.42-1.52,9.05-8.35,9.28-2.97.1-8.23-.03-8.55-1.04-1.13-3.69-1.03-7.86-.39-11.71.15-.89,4.28-1.24,6.58-1.84Z"/>
      <path class="cls-2" d="M796.43,1014.27c.88-4.31.44-9.64,3.15-12.53,1.52-1.63,8.79-.1,12.37,1.76,1.71.89,2.24,6.55.88,8.85-3.36,5.68-9.77,1.81-14.68,3.22-.57-.44-1.14-.87-1.71-1.31Z"/>
      <path class="cls-2" d="M938.77,1018.26c0-3.77-.2-6.74.06-9.68.22-2.45.92-6.94,1.55-6.96,3.84-.13,8.35-.14,11.37,1.61,2.18,1.27,3.33,5.34,3.29,8.15-.05,4.42-3.74,6.54-8.44,6.85-2.32.15-4.67.03-7.83.03Z"/>
      <path class="cls-2" d="M779.2,1021.09h-11.77c1.81-6.07,3.48-11.66,5.15-17.26.47-.02.95-.04,1.42-.07,1.7,5.67,3.4,11.33,5.2,17.32Z"/>
    </g>
  </g>
</svg>